# xmcd
#
# Track frame offsets: 
#        150
#        11081
#        27833
#        40385
#        62984
#        88330
#        105295
#        120388
#        133314
#        142765
#
# Disc length: 2047 seconds
#
# Revision: 0
# Processed by: cddbd v1.5.1PL2 Copyright (c) Steve Scherf et al.
# Submitted via: ExactAudioCopy v0.95a5
#
DISCID=8407fd0a
DTITLE=Jack Johnson - Pickin' On Jack Johnson
DYEAR=2003
DGENRE=Country
TTITLE0=Times Like These
TTITLE1=The Horizon Has Been Defeated
TTITLE2=Traffic in the Sky
TTITLE3=Taylor
TTITLE4=Flake
TTITLE5=Fortunate Fool
TTITLE6=Mudfootball
TTITLE7=Rodeo Clowns
TTITLE8=Gone
TTITLE9=Sexy Plexi
EXTD=
EXTT0=
EXTT1=
EXTT2=
EXTT3=
EXTT4=
EXTT5=
EXTT6=
EXTT7=
EXTT8=
EXTT9=
PLAYORDER=
